<?xml version="1.0" standalone="no"?>
<!DOCTYPE svg PUBLIC "-//W3C//DTD SVG 20010904//EN"
 "http://www.w3.org/TR/2001/REC-SVG-20010904/DTD/svg10.dtd">
<svg version="1.0" xmlns="http://www.w3.org/2000/svg"
 width="11360.000000pt" height="3321.000000pt" viewBox="0 0 11360.000000 3321.000000"
 preserveAspectRatio="xMidYMid meet">

<g transform="translate(0.000000,3321.000000) scale(0.100000,-0.100000)"
fill="#000000" stroke="none">
<path d="M22040 31619 c-224 -10 -286 -22 -362 -71 -202 -128 -233 -427 -62
-593 25 -24 70 -56 102 -72 l57 -28 545 -6 c526 -7 807 -19 1190 -55 2405
-220 4729 -1059 6671 -2409 868 -604 1734 -1367 2422 -2135 1936 -2163 3115
-4921 3361 -7865 36 -432 41 -558 41 -1155 0 -596 -4 -718 -41 -1150 -211
-2521 -1115 -4922 -2596 -6892 -567 -755 -1229 -1460 -1948 -2078 -202 -173
-599 -491 -820 -656 -1914 -1431 -4236 -2305 -6665 -2508 -413 -35 -571 -41
-1120 -41 -548 0 -707 6 -1120 41 -1476 123 -2913 491 -4280 1095 -251 110
-771 370 -1015 506 -1043 583 -1959 1273 -2794 2108 -356 356 -562 588 -780
878 -479 639 -855 1362 -1114 2147 -62 186 -144 462 -139 467 2 1 64 -54 138
-124 1704 -1599 3903 -2593 6209 -2808 600 -55 1269 -59 1850 -9 1602 136
3137 628 4505 1442 1873 1115 3352 2786 4240 4792 161 363 280 686 455 1226
91 282 109 347 100 364 -6 11 -9 24 -6 28 9 16 97 428 130 612 109 606 154
1079 163 1710 14 954 -82 1766 -317 2695 -334 1318 -896 2509 -1713 3625 -326
446 -979 1163 -1492 1639 -803 745 -1548 1315 -2510 1921 -636 400 -1603 887
-2378 1199 -3133 1258 -6512 1449 -9759 551 -1648 -456 -3261 -1212 -4676
-2192 -1274 -883 -2409 -1954 -3349 -3159 -1708 -2192 -2752 -4772 -3062
-7564 -60 -541 -78 -812 -91 -1397 -24 -1071 80 -2214 296 -3273 405 -1980
1240 -3902 2431 -5596 423 -602 740 -990 1344 -1649 280 -306 868 -855 1295
-1211 2155 -1795 4790 -2930 7629 -3288 656 -83 1299 -117 2000 -107 526 8
611 14 689 49 288 132 295 543 10 683 l-59 29 -440 7 c-593 9 -960 30 -1445
84 -2160 239 -4232 975 -6038 2143 -556 359 -1162 822 -1672 1275 -220 197
-900 877 -1064 1066 -448 515 -728 870 -1026 1301 -580 839 -1064 1728 -1445
2654 -576 1402 -906 2863 -986 4375 -16 300 -17 1119 -1 1400 34 608 97 1157
198 1725 386 2177 1306 4210 2680 5926 865 1080 1876 2007 3039 2784 1433 958
3056 1638 4735 1983 2231 460 4520 325 6672 -391 688 -230 1287 -485 2002
-855 962 -497 1865 -1131 2706 -1901 532 -487 897 -871 1333 -1404 571 -699
1044 -1625 1322 -2591 25 -87 44 -160 42 -162 -2 -2 -59 49 -128 113 -1759
1647 -3997 2644 -6369 2838 -2285 186 -4580 -390 -6519 -1638 -426 -274 -853
-596 -1237 -932 -1359 -1190 -2401 -2732 -2997 -4435 -90 -257 -239 -738 -233
-749 3 -5 -10 -74 -29 -152 -129 -538 -212 -1095 -257 -1714 -17 -235 -17
-1090 0 -1320 68 -923 214 -1702 472 -2530 472 -1510 1305 -2924 2350 -3988
1018 -1038 2184 -1932 3442 -2640 1935 -1089 4094 -1741 6333 -1912 343 -26
556 -35 975 -41 1088 -17 2204 86 3280 302 3784 761 7095 2867 9311 5924 526
725 1023 1560 1399 2350 855 1795 1332 3558 1465 5405 49 686 49 1443 -1 2135
-101 1422 -416 2859 -923 4216 -349 934 -800 1853 -1329 2704 -474 764 -1029
1499 -1646 2180 -192 213 -743 764 -956 956 -1008 914 -2074 1642 -3265 2234
-1832 910 -3694 1407 -5785 1546 -283 19 -1266 27 -1570 13z m-2337 -10854
c2018 -221 3865 -1236 5134 -2822 447 -558 832 -1219 1094 -1877 l40 -98 -20
-52 c-96 -258 -318 -719 -486 -1011 -643 -1120 -1560 -2054 -2666 -2718 -1463
-878 -3202 -1239 -4883 -1016 -1263 168 -2487 666 -3529 1436 l-127 95 0 56
c0 88 19 274 41 412 122 754 499 1441 1125 2050 399 389 842 705 1479 1055
1082 596 1834 1311 2260 2150 343 674 465 1430 355 2195 -11 74 -20 141 -20
148 0 16 30 15 203 -3z"/>
<path d="M22312 18007 c-111 -491 -134 -570 -212 -724 -72 -143 -158 -259
-277 -374 -169 -163 -314 -247 -606 -350 -98 -34 -174 -65 -170 -69 4 -4 82
-33 173 -65 91 -31 202 -75 247 -96 265 -126 503 -360 637 -626 66 -134 99
-245 200 -693 60 -264 106 -447 109 -435 4 11 50 211 102 445 53 234 108 458
121 499 67 202 178 376 343 541 178 178 320 262 615 365 87 30 164 59 172 63
9 5 -50 31 -164 71 -97 35 -213 80 -257 101 -326 157 -590 458 -710 809 -12
37 -66 263 -120 502 -54 239 -101 437 -104 441 -4 4 -48 -178 -99 -405z"/>
<path d="M19001 16133 c-29 -131 -64 -267 -77 -302 -79 -210 -242 -363 -477
-448 -39 -14 -83 -30 -97 -35 -22 -9 -12 -14 93 -53 180 -67 282 -137 373
-258 87 -115 118 -197 181 -474 31 -139 58 -252 59 -250 1 1 27 110 57 242 60
261 79 322 131 408 100 165 218 256 439 337 l102 38 -35 14 c-19 8 -60 23 -90
33 -197 64 -358 204 -446 390 -35 73 -54 137 -99 335 -30 135 -57 249 -58 253
-1 5 -27 -98 -56 -230z"/>
<path d="M20703 13842 c-52 -227 -85 -303 -176 -395 -71 -71 -137 -112 -251
-153 l-79 -28 64 -21 c113 -39 190 -84 260 -154 105 -105 131 -167 200 -478
13 -57 25 -103 29 -103 3 0 24 83 47 185 49 216 80 289 161 377 72 78 143 123
255 163 l89 32 -79 27 c-111 40 -179 81 -248 150 -93 94 -128 171 -177 388
-22 101 -44 186 -47 190 -3 4 -25 -77 -48 -180z"/>
<path d="M82885 30350 c-406 -20 -802 -61 -1145 -120 -1464 -252 -2417 -925
-2895 -2045 -243 -570 -365 -1311 -425 -2595 -33 -691 -30 -2330 5 -2910 68
-1133 116 -1408 375 -2136 203 -568 337 -788 696 -1134 422 -407 766 -645
1152 -795 442 -171 1232 -333 1902 -390 632 -53 1443 -43 2055 25 1384 155
2372 601 2958 1335 433 542 663 1229 694 2075 l6 180 -1311 0 c-1115 0 -1312
-2 -1312 -14 0 -52 -24 -238 -41 -321 -63 -302 -214 -535 -441 -682 -218 -141
-583 -232 -1098 -273 -69 -6 -260 -13 -425 -17 -498 -10 -858 22 -1195 107
-486 122 -814 342 -1007 675 -191 329 -325 909 -387 1685 -34 417 -40 614 -40
1275 0 661 6 858 40 1275 62 776 196 1356 387 1685 241 416 698 659 1407 749
389 50 1018 46 1475 -9 268 -33 545 -101 711 -175 298 -134 498 -398 573 -755
17 -83 41 -269 41 -321 0 -12 197 -14 1312 -14 l1311 0 -6 188 c-23 638 -133
1131 -357 1587 -263 538 -676 948 -1262 1254 -650 340 -1432 529 -2493 601
-211 14 -1031 21 -1260 10z"/>
<path d="M45420 24280 l0 -5951 3073 4 c3133 4 3253 5 3512 43 424 60 1049
257 1392 439 764 404 1183 1004 1367 1960 94 489 118 1169 60 1675 -59 511
-199 933 -428 1285 -184 281 -460 527 -779 691 l-73 37 85 42 c519 253 872
783 1030 1547 58 279 85 514 102 894 46 1014 -204 1812 -740 2367 -290 300
-659 525 -1125 686 -326 112 -741 164 -1726 213 -150 7 -1150 12 -2987 15
l-2763 4 0 -5951z m5617 3627 c342 -42 531 -82 659 -141 174 -81 352 -325 429
-590 57 -199 70 -514 30 -741 -58 -322 -239 -609 -447 -709 -102 -48 -181 -72
-348 -106 -321 -65 -247 -63 -1902 -67 l-1508 -4 0 1191 0 1191 1478 -4 c1276
-4 1495 -6 1609 -20z m-277 -4647 c556 -26 894 -81 1097 -180 205 -101 323
-336 375 -750 18 -142 17 -633 -1 -760 -23 -162 -66 -315 -122 -429 -43 -88
-64 -119 -128 -182 -62 -62 -94 -85 -171 -122 -200 -97 -472 -151 -880 -177
-99 -6 -729 -10 -1572 -10 l-1408 0 0 1310 0 1310 1298 0 c713 0 1394 -5 1512
-10z"/>
<path d="M57140 24280 l0 -5950 4185 0 4185 0 0 1160 0 1160 -2885 0 -2885 0
0 4790 0 4790 -1300 0 -1300 0 0 -5950z"/>
<path d="M70364 30158 c-15 -40 -1034 -2717 -2265 -5948 l-2236 -5875 1370 -3
c1000 -1 1373 1 1378 9 3 6 222 616 485 1355 l477 1344 2107 0 2106 0 479
-1355 479 -1355 1383 0 1383 0 -18 48 c-10 26 -1021 2703 -2247 5949 l-2230
5903 -1312 0 -1311 0 -28 -72z m1985 -5057 c347 -981 631 -1785 631 -1787 0
-2 -585 -4 -1300 -4 -715 0 -1300 3 -1300 7 0 6 1262 3620 1283 3673 9 23 11
21 32 -40 13 -36 307 -868 654 -1849z"/>
<path d="M90440 24280 l0 -5950 1300 0 1300 0 0 2151 c0 1196 4 2149 9 2147 4
-1 952 -969 2105 -2150 l2097 -2148 1812 0 1812 0 -2979 2979 -2979 2979 2478
2494 c1363 1371 2692 2708 2954 2971 l476 477 -1690 0 -1690 -1 -2195 -2274
c-1207 -1250 -2198 -2274 -2202 -2274 -5 -1 -8 1023 -8 2274 l0 2275 -1300 0
-1300 0 0 -5950z"/>
<path d="M49695 15860 c-392 -19 -791 -60 -1118 -115 -1750 -296 -2780 -1186
-3131 -2705 -98 -425 -168 -1008 -206 -1720 -46 -867 -51 -2590 -10 -3282 63
-1048 212 -1827 453 -2365 422 -944 1300 -1551 2627 -1817 532 -106 1017 -149
1700 -150 455 -1 577 5 885 44 884 113 1622 421 2193 918 l72 63 0 -446 0
-445 965 0 965 0 0 3625 0 3625 -2605 0 -2605 0 0 -1070 0 -1070 1420 0 1420
0 0 -342 c0 -753 -37 -1100 -156 -1457 -163 -493 -425 -768 -883 -926 -383
-131 -919 -196 -1521 -182 -392 10 -633 38 -905 106 -455 116 -766 308 -963
598 -319 471 -482 1494 -482 3038 0 1486 149 2485 444 2982 270 453 822 698
1701 754 195 13 701 7 915 -11 515 -41 880 -132 1098 -273 227 -147 378 -380
441 -682 17 -83 41 -269 41 -321 0 -12 197 -14 1312 -14 l1311 0 -6 188 c-48
1383 -565 2291 -1619 2841 -650 340 -1432 529 -2493 601 -211 14 -1031 21
-1260 10z"/>
<path d="M60884 15668 c-15 -40 -1034 -2717 -2265 -5948 l-2236 -5875 1370 -3
c1000 -1 1373 1 1378 9 3 6 222 616 485 1355 l477 1344 2107 0 2106 0 479
-1355 479 -1355 1383 0 1383 0 -18 48 c-10 26 -1021 2703 -2247 5949 l-2230
5903 -1312 0 -1311 0 -28 -72z m1985 -5057 c347 -981 631 -1785 631 -1787 0
-2 -585 -4 -1300 -4 -715 0 -1300 3 -1300 7 0 6 1262 3620 1283 3673 9 23 11
21 32 -40 13 -36 307 -868 654 -1849z"/>
<path d="M69360 9790 l0 -5950 4185 0 4185 0 0 1160 0 1160 -2885 0 -2885 0 0
4790 0 4790 -1300 0 -1300 0 0 -5950z"/>
<path d="M82584 15668 c-15 -40 -1034 -2717 -2265 -5948 l-2236 -5875 1370 -3
c1000 -1 1373 1 1378 9 3 6 222 616 485 1355 l477 1344 2107 0 2106 0 479
-1355 479 -1355 1383 0 1383 0 -18 48 c-10 26 -1021 2703 -2247 5949 l-2230
5903 -1312 0 -1311 0 -28 -72z m1985 -5057 c347 -981 631 -1785 631 -1787 0
-2 -585 -4 -1300 -4 -715 0 -1300 3 -1300 7 0 6 1262 3620 1283 3673 9 23 11
21 32 -40 13 -36 307 -868 654 -1849z"/>
<path d="M90604 15418 c117 -178 992 -1495 1945 -2927 l1732 -2604 -28 -41
c-331 -498 -3957 -5985 -3960 -5993 -4 -10 295 -13 1474 -13 l1480 0 1264
2005 c695 1103 1267 2004 1271 2003 4 -2 623 -903 1375 -2003 l1369 -2000
1503 -3 1503 -2 -65 92 c-205 296 -3990 5833 -3994 5844 -2 7 889 1352 1982
2988 l1986 2976 -1483 0 -1483 0 -1265 -1990 -1264 -1989 -31 46 c-16 26 -591
920 -1276 1987 l-1246 1941 -1501 3 -1501 2 213 -322z"/>
<path d="M102060 15735 c0 -3 1001 -1547 2225 -3432 l2225 -3426 0 -2519 0
-2518 1305 0 1305 0 0 2516 0 2516 2235 3428 c1229 1886 2235 3431 2235 3434
0 3 -645 6 -1433 6 l-1434 0 -1425 -2252 c-785 -1239 -1430 -2253 -1434 -2253
-4 0 -646 1014 -1428 2253 l-1420 2252 -1478 0 c-813 0 -1478 -2 -1478 -5z"/>
</g>
</svg>
